<?xml version="1.0" encoding="UTF-8" standalone="no"?>
<svg
   xmlns:dc="http://purl.org/dc/elements/1.1/"
   xmlns:cc="http://creativecommons.org/ns#"
   xmlns:rdf="http://www.w3.org/1999/02/22-rdf-syntax-ns#"
   xmlns:svg="http://www.w3.org/2000/svg"
   xmlns="http://www.w3.org/2000/svg"
   xmlns:sodipodi="http://sodipodi.sourceforge.net/DTD/sodipodi-0.dtd"
   xmlns:inkscape="http://www.inkscape.org/namespaces/inkscape"
   sodipodi:docname="Pitch Perfect.svg"
   inkscape:version="1.0 (4035a4fb49, 2020-05-01)"
   id="svg8"
   version="1.1"
   viewBox="0 0 67.733333 67.733335"
   height="256"
   width="256">
  <defs
     id="defs2" />
  <sodipodi:namedview
     inkscape:window-maximized="1"
     inkscape:window-y="-8"
     inkscape:window-x="-8"
     inkscape:window-height="705"
     inkscape:window-width="1366"
     units="px"
     showgrid="false"
     inkscape:document-rotation="0"
     inkscape:current-layer="layer1"
     inkscape:document-units="mm"
     inkscape:cy="126.24127"
     inkscape:cx="115.24989"
     inkscape:zoom="1.8270925"
     inkscape:pageshadow="2"
     inkscape:pageopacity="0.0"
     borderopacity="1.0"
     bordercolor="#666666"
     pagecolor="#ffffff"
     id="base" />
  <metadata
     id="metadata5">
    <rdf:RDF>
      <cc:Work
         rdf:about="">
        <dc:format>image/svg+xml</dc:format>
        <dc:type
           rdf:resource="http://purl.org/dc/dcmitype/StillImage" />
        <dc:title></dc:title>
      </cc:Work>
    </rdf:RDF>
  </metadata>
  <g
     id="layer1"
     inkscape:groupmode="layer"
     inkscape:label="Layer 1">
    <g
       transform="matrix(0.00746233,0,0,-0.00746233,-0.09065753,68.022609)"
       fill="#000000"
       stroke="none"
       id="g118">
      <path
         d="M 100,4560 V 80 H 4570 9040 V 4560 9040 H 4570 100 Z m 8890,5 V 140 H 4570 150 v 4425 4425 h 4420 4420 z"
         id="path80" />
      <path
         d="m 360,7815 v -905 h 1625 1625 v 905 905 H 1985 360 Z m 3200,0 V 6960 H 1985 410 v 855 855 h 1575 1575 z"
         id="path82" />
      <path
         d="m 3770,7780 v -920 h 1750 1750 v 920 920 H 5520 3770 Z m 3450,0 V 6910 H 5520 3820 v 870 870 h 1700 1700 z"
         id="path84" />
      <path
         d="m 7782,8520 c -120,-18 -257,-119 -314,-232 -105,-207 -12,-470 202,-572 62,-30 71,-31 190,-31 115,0 130,2 183,27 78,37 166,123 207,203 37,74 49,148 38,245 -20,174 -176,330 -359,360 -70,11 -71,11 -147,0 z m 251,-88 c 77,-38 137,-101 176,-182 22,-47 26,-68 26,-150 0,-82 -4,-103 -27,-152 -15,-32 -50,-81 -78,-108 -27,-28 -76,-63 -108,-78 -51,-24 -69,-27 -167,-27 -106,0 -112,1 -171,33 -75,41 -133,99 -171,172 -26,50 -28,64 -28,160 0,123 18,172 94,253 80,86 161,118 292,114 85,-2 103,-6 162,-35 z"
         id="path86" />
      <path
         d="m 310,5630 v -940 h 4235 4235 v 940 940 H 4545 310 Z m 8420,0 V 4740 H 4545 360 v 890 890 h 4185 4185 z"
         id="path88" />
      <path
         d="m 4097,6423 c -4,-3 -7,-361 -7,-795 0,-678 2,-789 14,-794 8,-3 341,169 748,389 549,295 733,398 733,412 0,13 -182,114 -730,406 -401,213 -735,388 -741,389 -6,0 -14,-3 -17,-7 z m 729,-424 c 373,-198 680,-362 682,-363 2,-2 -1336,-725 -1360,-734 -4,-2 -8,325 -8,727 0,402 1,731 3,731 2,0 309,-162 683,-361 z"
         id="path90" />
      <path
         d="m 6847,4583 c -4,-3 -7,-541 -7,-1195 0,-1035 2,-1189 15,-1194 9,-4 99,57 233,158 120,89 347,257 503,373 156,115 295,221 309,235 14,14 143,115 288,225 144,109 262,204 262,211 0,14 -1567,1194 -1586,1194 -6,0 -14,-3 -17,-7 z m 788,-626 c 396,-297 726,-545 733,-551 10,-10 -48,-58 -290,-241 -167,-126 -306,-234 -310,-241 -9,-14 -222,-174 -232,-174 -4,0 -145,-105 -314,-233 -169,-128 -313,-236 -319,-240 -10,-7 -13,219 -13,1113 0,894 3,1120 13,1114 6,-4 336,-250 732,-547 z"
         id="path92" />
      <path
         d="m 7448,3863 -3,-106 -102,-55 -103,-54 v 86 86 h -40 -40 v -107 -108 l -60,-33 -60,-33 v -54 c 0,-30 2,-55 5,-55 3,0 28,11 55,25 27,14 52,25 55,25 3,0 5,-78 5,-173 v -173 l -60,-29 -60,-29 v -58 c 0,-32 3,-58 6,-58 4,0 31,14 60,31 l 54,30 v -85 -86 h 40 39 l 3,107 3,108 95,52 c 52,28 98,52 103,52 4,1 7,-39 7,-89 v -90 h 40 40 v 114 113 l 60,32 60,32 v 60 59 l -53,-30 c -30,-16 -57,-30 -60,-30 -4,0 -7,78 -7,173 v 173 l 60,29 60,29 v 58 c 0,32 -3,58 -7,58 -5,0 -32,-13 -60,-29 l -53,-29 v 84 84 h -40 -39 z m -5,-573 c -5,-4 -52,-30 -105,-59 l -98,-52 v 175 175 l 103,55 102,55 3,-171 c 1,-94 -1,-175 -5,-178 z"
         id="path94" />
      <path
         d="M 2109,4532 C 1766,4270 1373,3971 1022,3706 602,3388 571,3360 617,3343 c 10,-4 366,-268 790,-586 503,-377 778,-577 788,-573 13,5 15,139 13,1198 -3,1092 -4,1193 -19,1196 -9,2 -45,-19 -80,-46 z m 49,-1713 -3,-560 -733,550 c -403,302 -734,553 -735,557 -2,6 775,610 854,664 12,8 29,22 38,31 27,26 98,79 106,79 4,0 13,6 19,14 6,8 110,89 231,181 l 220,166 3,-561 c 1,-308 1,-812 0,-1121 z"
         id="path96" />
      <path
         d="m 1600,3450 v -560 h 43 c 62,0 171,26 235,55 79,36 147,111 168,183 31,104 0,225 -68,273 -47,34 -138,38 -206,9 -28,-12 -57,-28 -63,-36 -6,-8 -15,-14 -20,-14 -5,0 -9,145 -9,325 v 325 h -40 -40 z m 255,-104 c 45,-19 67,-63 66,-137 0,-121 -44,-200 -133,-242 -29,-14 -65,-28 -80,-31 l -28,-6 v 190 191 l 53,24 c 61,29 76,30 122,11 z"
         id="path98" />
      <path
         d="M 2480,3425 V 2270 H 4520 6560 V 3425 4580 H 4520 2480 Z m 4030,0 V 2320 H 4520 2530 v 1105 1105 h 1990 1990 z"
         id="path100" />
      <path
         d="m 4394,4061 c -108,-29 -172,-66 -250,-145 -117,-118 -167,-247 -167,-436 0,-176 43,-297 143,-404 94,-100 190,-142 345,-153 104,-7 227,14 301,49 l 44,22 v 64 64 l -32,-20 c -69,-41 -138,-57 -253,-57 -136,0 -198,22 -280,97 -97,88 -144,228 -132,393 17,245 169,407 397,422 90,6 173,-8 247,-42 l 54,-24 -3,71 -3,72 -60,19 c -91,29 -261,32 -351,8 z"
         id="path102" />
      <path
         d="M 310,1160 V 220 h 4230 4230 v 940 940 H 4540 310 Z m 8410,0 V 270 H 4540 360 v 890 890 h 4180 4180 z"
         id="path104" />
      <path
         d="m 1966,1675 c -130,-37 -206,-144 -193,-271 12,-117 71,-179 254,-270 181,-89 221,-140 194,-242 -34,-124 -213,-154 -383,-65 -37,19 -72,32 -77,28 -6,-3 -11,-28 -11,-55 0,-57 18,-76 108,-112 81,-31 243,-32 322,0 121,48 185,141 184,267 -1,132 -50,187 -263,295 -161,82 -191,111 -191,188 0,138 153,182 328,95 45,-23 55,-25 63,-12 12,19 11,76 -1,99 -27,51 -232,85 -334,55 z"
         id="path106" />
      <path
         d="m 2570,1666 c -9,-11 -11,-105 -8,-373 4,-348 4,-360 27,-417 54,-134 182,-216 343,-216 183,0 322,89 368,237 18,60 20,93 20,418 0,390 4,365 -65,365 -69,0 -65,24 -65,-354 0,-373 -4,-405 -56,-473 -38,-50 -103,-76 -189,-76 -107,1 -175,37 -218,116 -21,41 -22,51 -25,402 -2,237 -7,364 -14,372 -15,18 -102,17 -118,-1 z"
         id="path108" />
      <path
         d="m 3612,1668 c -9,-9 -12,-132 -12,-494 0,-410 2,-483 15,-494 24,-20 397,-8 457,14 59,22 133,86 160,139 66,130 10,306 -116,362 l -49,22 31,19 c 73,42 111,143 92,242 -19,104 -85,168 -198,191 -74,15 -364,15 -380,-1 z m 368,-120 c 76,-39 101,-126 61,-215 -30,-65 -75,-83 -206,-83 h -105 v 160 160 h 103 c 87,0 110,-4 147,-22 z m 24,-426 c 66,-23 104,-71 113,-140 8,-74 -17,-135 -70,-170 -38,-25 -48,-27 -179,-30 l -138,-4 v 181 181 h 113 c 79,-1 127,-6 161,-18 z"
         id="path110" />
      <path
         d="m 4487,1668 c -16,-12 -17,-45 -15,-503 l 3,-490 34,-3 c 19,-2 44,-1 57,2 l 24,6 v 442 c 0,251 4,438 9,433 4,-6 84,-203 176,-440 92,-236 173,-433 179,-437 13,-9 78,-10 98,-3 8,3 95,203 194,444 l 179,438 3,-430 c 1,-297 6,-434 13,-444 6,-7 29,-13 49,-13 76,0 70,-42 70,495 0,426 -2,485 -16,499 -20,21 -134,22 -173,2 -24,-13 -50,-66 -192,-405 -90,-215 -166,-387 -170,-383 -3,4 -72,174 -154,377 -86,216 -158,380 -172,395 -20,22 -34,25 -101,28 -53,2 -83,-1 -95,-10 z"
         id="path112" />
      <path
         d="m 5853,1673 c -10,-4 -13,-113 -13,-498 0,-545 -5,-505 65,-505 70,0 65,-40 65,505 0,547 6,506 -68,504 -20,0 -43,-3 -49,-6 z"
         id="path114" />
      <path
         d="m 6120,1661 c -11,-22 -13,-52 -4,-75 5,-14 28,-16 155,-16 h 149 v -438 c 0,-327 3,-441 12,-450 16,-16 100,-16 116,0 9,9 12,123 12,450 v 438 h 150 150 l 6,26 c 4,15 3,39 -2,53 l -9,26 -362,3 c -350,2 -363,2 -373,-17 z"
         id="path116" />
    </g>
    <rect
       y="2.9510913"
       x="2.5957813"
       height="13.506817"
       width="51.191582"
       id="rect146"
       style="fill:#ffffff;fill-opacity:1;stroke:#ffffff;stroke-width:1.32292;stroke-opacity:1" />
    <circle
       r="6.9959054"
       cy="9.9469967"
       cx="9.5916862"
       id="path971"
       style="fill:#ffffff;fill-opacity:1;stroke:#000000;stroke-width:0.396875;stroke-opacity:1;stroke-miterlimit:4;stroke-dasharray:none" />
    <rect
       y="2.7343063"
       x="18.663527"
       height="13.717812"
       width="35.118042"
       id="rect973"
       style="fill:#ffffff;fill-opacity:1;stroke:#000000;stroke-width:0.396875;stroke-miterlimit:4;stroke-dasharray:none;stroke-opacity:1" />
  </g>
</svg>
